<svg id="Layer_1" data-name="Layer 1" xmlns="http://www.w3.org/2000/svg" xmlns:xlink="http://www.w3.org/1999/xlink" viewBox="0 0 252 252"><defs><style>.cls-1{fill:none;}.cls-2{clip-path:url(#clip-path);}.cls-3{fill:#c1e6e4;}.cls-4{fill:#191345;}.cls-5{clip-path:url(#clip-path-2);}</style><clipPath id="clip-path"><rect class="cls-1" x="-274" y="-2" width="256" height="256"/></clipPath><clipPath id="clip-path-2"><rect class="cls-1" x="-2" y="-2" width="256" height="256"/></clipPath></defs><g class="cls-2"><rect class="cls-3" x="-312.6" y="-32.48" width="333.21" height="314.92"/><path class="cls-4" d="M-106.83,224.44c-4.2,4.06-8.53,7.87-12.94,11.55l16.7,17.29-1.31,23.6L54,440.92l49.87-48.16-158.4-164-23.64.48-16.69-17.29C-98.67,216.18-102.63,220.39-106.83,224.44Z"/></g><g class="cls-5"><rect class="cls-3" x="-40.6" y="-32.48" width="333.21" height="314.92"/><path class="cls-4" d="M124.85,121.07a13.69,13.69,0,0,0-3.52-7.56c-7.7-8.7-21.81-8.7-32.46-8.48-19.51.39-39.12,6.94-55.41,17.36a3.6,3.6,0,0,0-1.12-1.73,6.44,6.44,0,0,0-3.24-.89c-.41,0-18.5,2.38-23.75,3.2-.66.11-1.37.25-.95.57a135.62,135.62,0,0,0,15,10.21c-3.18,4.05-7.67,8.59-10.45,13-.29.45,0,1.55.7,1.49C15,147.71,30.84,146.37,32,146c2-.68,4.86-4.8,4.79-5.06a129.09,129.09,0,0,0,12.91,3.28,117.25,117.25,0,0,0,12.78,2.2c2.14.24,4.3.43,6.46.56,1,.06,2,.13,3,.14.69,0,1-.08,1.37.61a26.6,26.6,0,0,0,1.86,3.4,4.06,4.06,0,0,0,3.24,1.47c5.49.08,21.22-2.08,22.65-3.31s1.37-3.77,1.78-5.47c0,0,0,0,0-.08,6.06-1.55,12.41-3.59,16.59-8.35,3.53-4,5.83-8.89,5.5-13.7C124.89,121.48,124.87,121.28,124.85,121.07Z"/><path class="cls-4" d="M-85.29,125.8A140.49,140.49,0,0,1-74.22,70,139.1,139.1,0,0,1-43.53,24.81,140.22,140.22,0,0,1,3.4-5.35Q30.7-16.23,63.53-16.24q32.46,0,60,10.89a141.81,141.81,0,0,1,47.29,30.16A137.89,137.89,0,0,1,201.64,70,140.66,140.66,0,0,1,212.7,125.8a140.59,140.59,0,0,1-11.06,55.85,137.93,137.93,0,0,1-30.87,45.15A141.79,141.79,0,0,1,123.48,257Q96,267.84,63.53,267.84,30.7,267.84,3.4,257a138,138,0,0,1-77.62-75.3A140.42,140.42,0,0,1-85.29,125.8Zm73.16,0a71.6,71.6,0,0,0,6.07,29.62,74.09,74.09,0,0,0,40.5,39.08A77.12,77.12,0,0,0,63.53,200,77.12,77.12,0,0,0,116.89,179a73.61,73.61,0,0,0,16.59-23.56,71.76,71.76,0,0,0,6.07-29.62,71.83,71.83,0,0,0-6.07-29.62,73.68,73.68,0,0,0-16.59-23.55A77.18,77.18,0,0,0,63.53,51.57a77.13,77.13,0,0,0-29.09,5.54A74.11,74.11,0,0,0-6.06,96.18,71.67,71.67,0,0,0-12.13,125.8Z"/><path class="cls-4" d="M165.17,224.44c-4.2,4.06-8.53,7.87-12.94,11.55l16.7,17.29-1.31,23.6L326,440.92l49.87-48.16-158.4-164-23.64.48-16.69-17.29C173.33,216.18,169.37,220.39,165.17,224.44Z"/></g></svg>